{"title":"Northpole.Open.for.Christmas.2015.HDRip.480p.x264-VYTO [P2PDL]","uid":12958536,"size":322785194,"categoryP":"video","categoryS":"movies","magnet":"?xt=urn:btih:412a6d65add4a1369ff2d1c579c5c6b13d1cdbba&amp;dn=Northpole.Open.for.Christmas.2015.HDRip.480p.x264-VYTO+%5BP2PDL%5D&amp;tr=udp%3A%2F%2Ftracker.leechers-paradise.org%3A6969&amp;tr=udp%3A%2F%2Fzer0day.ch%3A1337&amp;tr=udp%3A%2F%2Fopen.demonii.com%3A1337&amp;tr=udp%3A%2F%2Ftracker.coppersurfer.tk%3A6969&amp;tr=udp%3A%2F%2Fexodus.desync.com%3A6969","seeders":0,"leechers":1,"uploader":"VYTOP2PDL","files":6,"time":1449817399,"description":"____    ____ ____    ____ .___________.  ______   \r\n     /   /      /   / |           | /  __    \r\n    /   /      /   /  `---|  |----`|  |  |  | \r\n        /     _    _/       |  |     |  |  |  | \r\n       /        |  |         |  |     |  `--'  | \r\n    __/         |__|         |__|      ______/  \r\n                                                  \r\nPresenting Small Encodes with quality for years!\r\n                                                                                                   \r\n                                                                                                   \r\n\r\nNorthpole.Open.for.Christmas.2015.HDRip.480p.x264.AAC-VYTO\r\n\r\n\r\nGenre:  Fantasy    \nhttp://www.imdb.com/title/tt4843046/\r\n\r\n\r\nFormat                                   : MPEG-4\r\nFile size                                : 301 MiB\r\nDuration                                 : 1h 23mn\r\nOverall bit rate                         : 506 Kbps\r\n\r\nVideo\r\nFormat                                   : AVC\r\nBit rate                                 : 463 Kbps\r\nWidth                                    : 720 pixels\r\nHeight                                   : 400 pixels\r\nDisplay aspect ratio                     : 16:9\r\nFrame rate mode                          : Constant\r\nFrame rate                               : 23.976 fps\r\nBit depth                                : 8 bits\r\nStream size                              : 276 MiB (91%)\r\nWriting library                          : x264\r\n\r\nAudio\r\nFormat                                   : AAC\r\nBit rate mode                            : Variable\r\nBit rate                                 : 40.0 Kbps\r\nChannel(s)                               : 2 channels\r\nChannel positions                        : Front: L R\r\nSampling rate                            : 48.0 KHz\r\nStream size                              : 23.8 MiB (8%)\r\nLanguage                                 : English\r\n\r\nSubtitle                                 : Yes (English)\r\n\r\nScreen Shots: (Click to view)\r\n \nhttp://ititli.com/Br \nhttp://ititli.com/B1 \nhttp://ititli.com/BT \nhttp://ititli.com/BW \nhttp://ititli.com/Bg \nhttp://ititli.com/Bn \nhttp://ititli.com/Bw\r\n\r\n----------------------------------------------------------------------------------------------------\r\n\r\n\r\nEncoder Notes: Looking For Early Access To Anything You Can Provide WEBDL, DVDScr, DVDR, BluRay,\r\nDirect Audio, Music Releases and Seedboxes. If You Got anything to offer please contact us.\r\n\r\nSupport us by donating BC - 1FgwdzPsd1y25Gea8wP1qni35uGCtmkRCD\r\n\r\nSend some love!\r\nFind us and join us!","torrent":{"xt":"urn:btih:412a6d65add4a1369ff2d1c579c5c6b13d1cdbba","amp;dn":"Northpole.Open.for.Christmas.2015.HDRip.480p.x264-VYTO+%5BP2PDL%5D","amp;tr":["udp%3A%2F%2Ftracker.leechers-paradise.org%3A6969","udp%3A%2F%2Fzer0day.ch%3A1337","udp%3A%2F%2Fopen.demonii.com%3A1337","udp%3A%2F%2Ftracker.coppersurfer.tk%3A6969","udp%3A%2F%2Fexodus.desync.com%3A6969"],"infoHash":"412a6d65add4a1369ff2d1c579c5c6b13d1cdbba","infoHashBuffer":{"type":"Buffer","data":[65,42,109,101,173,212,161,54,159,242,209,197,121,197,198,177,61,28,219,186]},"announce":[],"urlList":[]}}